<?xml version="1.0" encoding="utf-8"?>
<!-- Generator: Adobe Illustrator 16.2.0, SVG Export Plug-In . SVG Version: 6.00 Build 0)  -->
<!DOCTYPE svg PUBLIC "-//W3C//DTD SVG 1.1//EN" "http://www.w3.org/Graphics/SVG/1.1/DTD/svg11.dtd">
<svg version="1.1" id="Ebene_1" xmlns="http://www.w3.org/2000/svg" xmlns:xlink="http://www.w3.org/1999/xlink" x="0px" y="0px"
	 width="607.224px" height="792px" viewBox="0 0 607.224 792" enable-background="new 0 0 607.224 792" xml:space="preserve">
<rect fill="#FFFFFF" width="607.224" height="792"/>
<path d="M303.242,157.993l-58.176-58.236L135.996,208.716l167.254,166.99L470.489,208.68L361.418,99.929L303.242,157.993z
	 M419.749,208.492L303.163,324.964l-116.44-116.392l58.175-58.29l58.486,58.454l58.235-58.238L419.749,208.492z M124.706,485.359
	c0,14.848-12.653,25.802-36.783,25.802c-23.791,0-39.135-11.303-39.478-28.859h22.608c0,7.781,6.92,12.321,16.699,12.321
	c8.265,0,15.192-2.524,15.192-7.924c0-6.066-4.39-8.104-13.34-10.12c-32.21-7.088-38.119-15.359-38.119-29.37
	c0-12.463,9.619-23.44,35.591-23.44c23.793,0,34.253,10.31,35.26,27.331H101.25c-1.008-7.598-5.39-10.954-14.849-10.954
	c-8.94,0-13.655,1.855-13.655,7.063c0,4.563,4.715,6.927,13.491,9.291C115.251,464.415,124.706,465.946,124.706,485.359
	 M221.387,468.312c0,25.128-12.651,42.85-34.077,42.85c-10.298,0-18.386-4.219-24.62-12.995v54.798h-21.595V425.97h21.077
	l0.175,10.124c5.235-8.435,12.982-12.325,23.102-12.325C206.38,423.769,221.387,440.305,221.387,468.312 M199.124,466.808
	c0-14.851-7.758-25.159-18.735-25.159c-10.45,0-18.553,9.8-18.553,23.79c0,18.065,6.25,27.009,18.392,27.009
	C193.043,492.447,199.124,483.828,199.124,466.808 M257.298,435.934v-9.964H236.71v82.992h21.93v-43.175
	c0-13.318,6.57-20.082,20.076-20.082c2.02,0,4.051,0.16,6.069,0.509v-22.445h-2.866
	C272.979,423.769,264.542,424.786,257.298,435.934 M373.267,473.195h-57.176c0.661,12.487,7.745,20.595,18.556,20.595
	c7.077,0,13.329-3.539,14.832-9.289h22.607c-5.047,17.021-18.715,26.66-36.433,26.66c-27.664,0-41.509-15.194-41.509-45.215
	c0-25.642,14.684-42.178,40.153-42.178C359.776,423.769,373.267,440.305,373.267,473.195 M350.662,459.371
	c-0.337-12.33-8.431-18.202-17.05-18.202c-8.755,0-16.005,6.736-16.86,18.202H350.662z M460.181,455.662v52.494h-20.409
	c-0.672-2.041-1.18-4.916-1.342-7.465c-5.231,5.743-14.001,9.642-25.146,9.642c-18.889,0-27.665-9.269-27.665-22.769
	c0-23.956,16.028-26.667,38.121-29.699c10.971-1.528,14.018-3.704,14.018-9.448c0-5.399-5.421-8.596-14.018-8.596
	c-9.943,0-13.985,4.892-15.006,12.296h-20.419c0.35-17.207,9.787-29.184,36.45-29.184
	C451.076,422.934,460.181,434.746,460.181,455.662 M438.239,467.477c-2.175,2.203-6.052,3.387-14.146,4.913
	c-12.488,2.339-16.541,5.879-16.541,12.97c0,6.256,3.706,9.264,10.634,9.264c11.305,0,19.732-8.243,19.897-18.014L438.239,467.477z
	 M555.55,395.604v113.358h-21.078l-0.163-10.124c-5.236,8.457-13.008,12.323-23.115,12.323c-20.932,0-35.938-16.538-35.938-44.542
	c0-25.127,12.658-42.851,34.086-42.851c10.282,0,18.39,4.217,24.617,12.995v-41.16H555.55z M534.793,469.491
	c0-18.043-6.229-26.981-18.379-26.981c-12.817,0-18.889,8.59-18.889,25.643c0,14.843,7.764,25.13,18.729,25.13
	C526.712,493.282,534.793,483.504,534.793,469.491 M368.935,561.477h-35.793v-31.966h35.793V561.477z M111.389,695.506
	c-15.97,0-27.256-7.437-27.256-20.109H47.264c0.544,28.621,25.593,47.067,64.391,47.067c39.361,0,59.994-17.881,59.994-42.099
	c0-31.655-15.402-34.125-62.746-47.067c-14.304-3.842-22.01-7.705-22.01-15.142c0-8.511,7.706-11.547,22.278-11.547
	c15.424,0,22.58,5.506,24.223,17.88h34.41c-1.656-27.784-18.719-44.567-57.525-44.567c-42.391,0-58.061,17.879-58.061,38.234
	c0,22.848,9.631,36.325,62.188,47.902c14.588,3.297,21.757,6.6,21.757,16.514C136.163,691.375,124.864,695.506,111.389,695.506
	 M188.351,718.89h35.784v-77.618c0-18.146,9.892-33.028,27.794-33.028c16.239,0,23.112,6.341,23.112,26.718v83.929h36.05v-95.765
	c0-26.986-19.265-43.203-47.06-43.203c-18.151,0-34.678,9.078-39.897,21.184v-85.78c-10.397,11.89-25.762,14.042-35.784,13.989
	V718.89z M333.142,718.89h35.793v-139.24h-35.793V718.89z M543.116,691.375c-14.581,0-20.636-9.906-20.636-26.986v-57.972h33.229
	v-26.768H522.48v-50.139h-35.239V667.96c0,29.188,15.693,54.504,55.338,54.504c4.764,0,9.21-0.399,13.318-1.155l-0.188-29.934
	H543.116z M428.23,648.446c0-21.757,10.725-32.766,32.738-32.766c3.289,0,6.607,0.274,9.909,0.843v-36.602h-4.681
	c-14.584,0-28.356,1.634-40.183,19.788v-20.061h-33.577v139.24h35.793V648.446z"/>
</svg>
