<?xml version="1.0" encoding="utf-8"?>
<!-- Generator: Adobe Illustrator 16.2.0, SVG Export Plug-In . SVG Version: 6.00 Build 0)  -->
<!DOCTYPE svg PUBLIC "-//W3C//DTD SVG 1.1//EN" "http://www.w3.org/Graphics/SVG/1.1/DTD/svg11.dtd">
<svg version="1.1" id="Ebene_1" xmlns="http://www.w3.org/2000/svg" xmlns:xlink="http://www.w3.org/1999/xlink" x="0px" y="0px"
	 width="607.224px" height="792px" viewBox="0 0 607.224 792" enable-background="new 0 0 607.224 792" xml:space="preserve">
<path fill="#00B2A5" d="M418.187,494.623c-6.928,0-10.634-3.008-10.634-9.264c0-7.091,4.053-10.631,16.541-12.97
	c8.094-1.526,11.971-2.71,14.146-4.913l-0.155,9.133C437.919,486.38,429.491,494.623,418.187,494.623z M333.612,441.169
	c-8.755,0-16.005,6.736-16.86,18.202h33.91C350.325,447.041,342.231,441.169,333.612,441.169z M516.254,493.282
	c10.458,0,18.539-9.778,18.539-23.791c0-18.043-6.229-26.981-18.379-26.981c-12.817,0-18.889,8.59-18.889,25.643
	C497.525,482.995,505.289,493.282,516.254,493.282z M180.389,441.648c-10.45,0-18.553,9.8-18.553,23.79
	c0,18.065,6.25,27.009,18.392,27.009c12.816,0,18.896-8.619,18.896-25.64C199.124,451.957,191.366,441.648,180.389,441.648z
	 M361.619,150.499l-58.235,58.238l-58.486-58.454l-58.175,58.29l116.44,116.392l116.586-116.472L361.619,150.499z M607.224,0v792H0
	V0H607.224z M135.996,208.716l167.254,166.99L470.489,208.68L361.418,99.929l-58.176,58.064l-58.176-58.236L135.996,208.716z
	 M257.298,435.934v-9.964H236.71v82.992h21.93v-43.175c0-13.318,6.57-20.082,20.076-20.082c2.02,0,4.051,0.16,6.069,0.509v-22.445
	h-2.866C272.979,423.769,264.542,424.786,257.298,435.934z M102.943,486.699c0,5.399-6.927,7.924-15.192,7.924
	c-9.779,0-16.699-4.54-16.699-12.321H48.444c0.343,17.557,15.687,28.859,39.478,28.859c24.13,0,36.783-10.954,36.783-25.802
	c0-19.413-9.454-20.944-38.469-28.859c-8.776-2.364-13.491-4.728-13.491-9.291c0-5.208,4.715-7.063,13.655-7.063
	c9.459,0,13.841,3.356,14.849,10.954h21.086c-1.007-17.021-11.467-27.331-35.26-27.331c-25.972,0-35.591,10.978-35.591,23.44
	c0,14.011,5.909,22.282,38.119,29.37C98.554,478.595,102.943,480.633,102.943,486.699z M171.648,680.365
	c0-31.655-15.402-34.125-62.746-47.067c-14.304-3.842-22.01-7.705-22.01-15.142c0-8.511,7.706-11.547,22.278-11.547
	c15.424,0,22.58,5.506,24.223,17.88h34.41c-1.656-27.784-18.719-44.567-57.525-44.567c-42.391,0-58.061,17.879-58.061,38.234
	c0,22.848,9.631,36.325,62.188,47.902c14.588,3.297,21.757,6.6,21.757,16.514c0,8.803-11.298,12.934-24.774,12.934
	c-15.97,0-27.256-7.437-27.256-20.109H47.264c0.544,28.621,25.593,47.067,64.391,47.067
	C151.016,722.464,171.648,704.583,171.648,680.365z M187.31,511.161c21.426,0,34.077-17.722,34.077-42.85
	c0-28.007-15.006-44.543-35.938-44.543c-10.12,0-17.867,3.891-23.102,12.325l-0.175-10.124h-21.077v126.994h21.595v-54.798
	C168.923,506.942,177.012,511.161,187.31,511.161z M311.091,623.125c0-26.986-19.265-43.203-47.06-43.203
	c-18.151,0-34.678,9.078-39.897,21.184v-85.78c-10.397,11.89-25.762,14.042-35.784,13.989V718.89h35.784v-77.618
	c0-18.146,9.892-33.028,27.794-33.028c16.239,0,23.112,6.341,23.112,26.718v83.929h36.05V623.125z M368.935,579.649h-35.793v139.24
	h35.793V579.649z M368.935,529.511h-35.793v31.966h35.793V529.511z M316.091,473.195h57.176c0-32.891-13.49-49.427-38.969-49.427
	c-25.47,0-40.153,16.536-40.153,42.178c0,30.021,13.845,45.215,41.509,45.215c17.718,0,31.386-9.64,36.433-26.66h-22.607
	c-1.503,5.75-7.755,9.289-14.832,9.289C323.836,493.79,316.752,485.683,316.091,473.195z M413.284,510.333
	c11.145,0,19.914-3.898,25.146-9.642c0.162,2.549,0.67,5.424,1.342,7.465h20.409v-52.494c0-20.916-9.104-32.729-35.415-32.729
	c-26.663,0-36.101,11.977-36.45,29.184h20.419c1.021-7.404,5.063-12.296,15.006-12.296c8.597,0,14.018,3.196,14.018,8.596
	c0,5.744-3.047,7.92-14.018,9.448c-22.093,3.032-38.121,5.743-38.121,29.699C385.619,501.064,394.396,510.333,413.284,510.333z
	 M470.878,579.922h-4.681c-14.584,0-28.356,1.634-40.183,19.788v-20.061h-33.577v139.24h35.793v-70.443
	c0-21.757,10.725-32.766,32.738-32.766c3.289,0,6.607,0.274,9.909,0.843V579.922z M475.256,466.619
	c0,28.004,15.006,44.542,35.938,44.542c10.107,0,17.879-3.866,23.115-12.323l0.163,10.124h21.078V395.604h-21.591v41.16
	c-6.228-8.778-14.335-12.995-24.617-12.995C487.914,423.769,475.256,441.492,475.256,466.619z M555.897,721.309l-0.188-29.934
	h-12.593c-14.581,0-20.636-9.906-20.636-26.986v-57.972h33.229v-26.768H522.48v-50.139h-35.239V667.96
	c0,29.188,15.693,54.504,55.338,54.504C547.343,722.464,551.789,722.064,555.897,721.309z"/>
</svg>
